<svg xmlns="http://www.w3.org/2000/svg" width="64" height="64" viewBox="0 0 64 64">
  <defs>
    <linearGradient id="g9" x1="0%" y1="100%" x2="100%" y2="0%">
      <stop offset="0%" stop-color="oklch(0.55 0.30 25.5)"/><stop offset="50%" stop-color="oklch(0.65 0.28 40.5)"/><stop offset="100%" stop-color="oklch(0.72 0.25 55.5)"/>
    </linearGradient>
    <radialGradient id="fl"><stop offset="0%" stop-color="oklch(0.80 0.25 55.5)" stop-opacity="0.5"/><stop offset="60%" stop-color="oklch(0.65 0.28 25.5)" stop-opacity="0.2"/><stop offset="100%" stop-color="oklch(0.65 0.28 25.5)" stop-opacity="0"/></radialGradient>
  </defs>
  <ellipse cx="32" cy="28.16" rx="26.88" ry="32.64" fill="url(#fl)"/>
  <circle cx="27.36" cy="13.37" r="0.6" fill="oklch(0.85 0.22 25.5)" opacity="0.50"/>
  <circle cx="38.62" cy="8.93" r="1" fill="oklch(0.85 0.22 45.5)" opacity="0.65"/>
  <circle cx="52.72" cy="11.99" r="0.6" fill="oklch(0.85 0.22 65.5)" opacity="0.80"/>
  <circle cx="50.63" cy="27.36" r="1" fill="oklch(0.85 0.22 85.5)" opacity="0.50"/>
  <circle cx="55.07" cy="38.62" r="0.6" fill="oklch(0.85 0.22 105.5)" opacity="0.65"/>
  <circle cx="52.01" cy="52.72" r="1" fill="oklch(0.85 0.22 125.5)" opacity="0.80"/>
  <circle cx="36.64" cy="50.63" r="0.6" fill="oklch(0.85 0.22 145.5)" opacity="0.50"/>
  <circle cx="25.38" cy="55.07" r="1" fill="oklch(0.85 0.22 165.5)" opacity="0.65"/>
  <circle cx="11.28" cy="52.01" r="0.6" fill="oklch(0.85 0.22 185.5)" opacity="0.80"/>
  <circle cx="13.37" cy="36.64" r="1" fill="oklch(0.85 0.22 205.5)" opacity="0.50"/>
  <circle cx="8.93" cy="25.38" r="0.6" fill="oklch(0.85 0.22 225.5)" opacity="0.65"/>
  <circle cx="11.99" cy="11.28" r="1" fill="oklch(0.85 0.22 245.5)" opacity="0.80"/>
  <polygon points="32.00,12.80 48.63,22.40 48.63,41.60 32.00,51.20 15.37,41.60 15.37,22.40" fill="url(#g9)" stroke="oklch(0.72 0.28 25.5)" stroke-width="1.5"/>
  <polygon points="32.00,23.36 33.47,28.45 38.11,25.89 35.55,30.53 40.64,32.00 35.55,33.47 38.11,38.11 33.47,35.55 32.00,40.64 30.53,35.55 25.89,38.11 28.45,33.47 23.36,32.00 28.45,30.53 25.89,25.89 30.53,28.45" fill="oklch(0.80 0.24 40.5)" opacity="0.4"/>
</svg>