<svg xmlns="http://www.w3.org/2000/svg" width="64" height="64" viewBox="0 0 64 64"><defs><radialGradient id="bl"><stop offset="0%" stop-color="oklch(0.78 0.14 232 / 0.3)"/><stop offset="55%" stop-color="oklch(0.78 0.14 232 / 0.105)"/><stop offset="100%" stop-color="oklch(0.78 0.14 232 / 0)"/></radialGradient><linearGradient id="g-tab" x1="0%" y1="0%" x2="100%" y2="100%"><stop offset="0%" stop-color="oklch(0.74 0.147 232)"/><stop offset="55%" stop-color="oklch(0.58 0.193 232)"/><stop offset="100%" stop-color="oklch(0.47 0.202 232)"/></linearGradient><radialGradient id="g-core" cx="44%" cy="42%" r="62%"><stop offset="0%" stop-color="oklch(0.94 0.055 232 / 0.712)"/><stop offset="42%" stop-color="oklch(0.74 0.156 232 / 0.3)"/><stop offset="100%" stop-color="oklch(0.7 0.183 232 / 0)"/></radialGradient><linearGradient id="g-shd" x1="0%" y1="0%" x2="100%" y2="100%"><stop offset="0%" stop-color="oklch(1 0 232 / 0.18)"/><stop offset="40%" stop-color="oklch(1 0 232 / 0)"/><stop offset="100%" stop-color="oklch(0.08 0.037 232 / 0.5)"/></linearGradient><linearGradient id="g-rim" x1="0%" y1="0%" x2="100%" y2="100%"><stop offset="0%" stop-color="oklch(0.98 0.028 232 / 0.95)"/><stop offset="50%" stop-color="oklch(0.82 0.11 232 / 0.5)"/><stop offset="100%" stop-color="oklch(0.4 0.11 232 / 0.55)"/></linearGradient><radialGradient id="g-spc" cx="50%" cy="50%" r="50%"><stop offset="0%" stop-color="oklch(1 0 232 / 0.9)"/><stop offset="55%" stop-color="oklch(1 0 232 / 0.25)"/><stop offset="100%" stop-color="oklch(1 0 232 / 0)"/></radialGradient></defs><circle cx="32" cy="32" r="31" fill="url(#bl)"/><g><polygon points="32,8 52.78,20 42.39,26 32,20" fill="oklch(0.666 0.156 232)"/><polygon points="52.78,20 52.78,44 42.39,38 42.39,26" fill="oklch(0.511 0.19 260.8)"/><polygon points="52.78,44 32,56 32,44 42.39,38" fill="oklch(0.446 0.205 232)"/><polygon points="32,56 11.22,44 21.61,38 32,44" fill="oklch(0.534 0.185 260.8)"/><polygon points="11.22,44 11.22,20 21.61,26 21.61,38" fill="oklch(0.689 0.151 232)"/><polygon points="11.22,20 32,8 32,20 21.61,26" fill="oklch(0.754 0.136 260.8)"/><polygon points="32,20 42.39,26 42.39,38 32,44 21.61,38 21.61,26" fill="url(#g-tab)"/><circle cx="32" cy="32" r="11.76" fill="url(#g-core)"/><polygon points="32,8 52.78,20 52.78,44 32,56 11.22,44 11.22,20" fill="url(#g-shd)"/><line x1="32" y1="8" x2="32" y2="20" stroke="oklch(0.9 0.073 232 / 0.38)" stroke-width="0.35"/><line x1="52.78" y1="20" x2="42.39" y2="26" stroke="oklch(0.9 0.073 232 / 0.38)" stroke-width="0.35"/><line x1="52.78" y1="44" x2="42.39" y2="38" stroke="oklch(0.9 0.073 232 / 0.38)" stroke-width="0.35"/><line x1="32" y1="56" x2="32" y2="44" stroke="oklch(0.9 0.073 232 / 0.38)" stroke-width="0.35"/><line x1="11.22" y1="44" x2="21.61" y2="38" stroke="oklch(0.9 0.073 232 / 0.38)" stroke-width="0.35"/><line x1="11.22" y1="20" x2="21.61" y2="26" stroke="oklch(0.9 0.073 232 / 0.38)" stroke-width="0.35"/><polygon points="32,20 42.39,26 42.39,38 32,44 21.61,38 21.61,26" fill="none" stroke="oklch(0.88 0.092 232 / 0.5)" stroke-width="0.4"/><ellipse cx="27.49" cy="23.52" rx="7.2" ry="2.64" transform="rotate(-38 27.493072997255446 23.5237031085543)" fill="url(#g-spc)"/><polygon points="32,8 52.78,20 52.78,44 32,56 11.22,44 11.22,20" fill="none" stroke="url(#g-rim)" stroke-width="1.1" stroke-linejoin="round"/></g><line x1="32" y1="29.12" x2="32" y2="9.44" stroke="oklch(0.96 0.055 264 / 0.62)" stroke-width="0.9" stroke-linecap="round"/><line x1="34.49" y1="33.44" x2="51.54" y2="43.28" stroke="oklch(0.96 0.055 264 / 0.62)" stroke-width="0.9" stroke-linecap="round"/><line x1="29.51" y1="33.44" x2="12.46" y2="43.28" stroke="oklch(0.96 0.055 264 / 0.62)" stroke-width="0.9" stroke-linecap="round"/></svg>