<svg xmlns="http://www.w3.org/2000/svg" width="64" height="64" viewBox="0 0 64 64"><defs><linearGradient id="fl-0" x1="0%" y1="100%" x2="0%" y2="0%"><stop offset="0%" stop-color="oklch(0.62 0.283 24 / 0.1)"/><stop offset="45%" stop-color="oklch(0.72 0.283 38 / 0.5)"/><stop offset="100%" stop-color="oklch(0.9 0.213 58 / 0.85)"/></linearGradient><linearGradient id="fl-1" x1="0%" y1="100%" x2="0%" y2="0%"><stop offset="0%" stop-color="oklch(0.62 0.283 24 / 0.1)"/><stop offset="45%" stop-color="oklch(0.72 0.283 38 / 0.5)"/><stop offset="100%" stop-color="oklch(0.9 0.213 58 / 0.85)"/></linearGradient><linearGradient id="fl-2" x1="0%" y1="100%" x2="0%" y2="0%"><stop offset="0%" stop-color="oklch(0.62 0.283 24 / 0.1)"/><stop offset="45%" stop-color="oklch(0.72 0.283 38 / 0.5)"/><stop offset="100%" stop-color="oklch(0.9 0.213 58 / 0.85)"/></linearGradient><linearGradient id="fl-3" x1="0%" y1="100%" x2="0%" y2="0%"><stop offset="0%" stop-color="oklch(0.62 0.283 24 / 0.1)"/><stop offset="45%" stop-color="oklch(0.72 0.283 38 / 0.5)"/><stop offset="100%" stop-color="oklch(0.9 0.213 58 / 0.85)"/></linearGradient><linearGradient id="fl-4" x1="0%" y1="100%" x2="0%" y2="0%"><stop offset="0%" stop-color="oklch(0.62 0.283 24 / 0.1)"/><stop offset="45%" stop-color="oklch(0.72 0.283 38 / 0.5)"/><stop offset="100%" stop-color="oklch(0.9 0.213 58 / 0.85)"/></linearGradient><linearGradient id="fl-5" x1="0%" y1="100%" x2="0%" y2="0%"><stop offset="0%" stop-color="oklch(0.62 0.283 24 / 0.1)"/><stop offset="45%" stop-color="oklch(0.72 0.283 38 / 0.5)"/><stop offset="100%" stop-color="oklch(0.9 0.213 58 / 0.85)"/></linearGradient><radialGradient id="bl"><stop offset="0%" stop-color="oklch(0.8 0.2 44 / 0.42)"/><stop offset="55%" stop-color="oklch(0.8 0.2 44 / 0.147)"/><stop offset="100%" stop-color="oklch(0.8 0.2 44 / 0)"/></radialGradient><linearGradient id="g-tab" x1="0%" y1="0%" x2="100%" y2="100%"><stop offset="0%" stop-color="oklch(0.8 0.227 24)"/><stop offset="55%" stop-color="oklch(0.64 0.298 24)"/><stop offset="100%" stop-color="oklch(0.53 0.312 24)"/></linearGradient><radialGradient id="g-core" cx="44%" cy="42%" r="62%"><stop offset="0%" stop-color="oklch(1 0.085 24 / 0.95)"/><stop offset="42%" stop-color="oklch(0.8 0.241 24 / 0.4)"/><stop offset="100%" stop-color="oklch(0.76 0.283 24 / 0)"/></radialGradient><linearGradient id="g-shd" x1="0%" y1="0%" x2="100%" y2="100%"><stop offset="0%" stop-color="oklch(1 0 24 / 0.18)"/><stop offset="40%" stop-color="oklch(1 0 24 / 0)"/><stop offset="100%" stop-color="oklch(0.08 0.057 24 / 0.5)"/></linearGradient><linearGradient id="g-rim" x1="0%" y1="0%" x2="100%" y2="100%"><stop offset="0%" stop-color="oklch(0.98 0.042 24 / 0.95)"/><stop offset="50%" stop-color="oklch(0.88 0.17 24 / 0.5)"/><stop offset="100%" stop-color="oklch(0.46 0.17 24 / 0.55)"/></linearGradient><radialGradient id="g-spc" cx="50%" cy="50%" r="50%"><stop offset="0%" stop-color="oklch(1 0 24 / 0.9)"/><stop offset="55%" stop-color="oklch(1 0 24 / 0.25)"/><stop offset="100%" stop-color="oklch(1 0 24 / 0)"/></radialGradient><radialGradient id="st"><stop offset="0%" stop-color="oklch(0.99 0.042 64 / 0.5)"/><stop offset="60%" stop-color="oklch(0.9 0.142 64 / 0.3)"/><stop offset="100%" stop-color="oklch(0.85 0.17 64 / 0)"/></radialGradient></defs><path d="M 7.26 41 C 5.69 27.95 14.56 19.07 15.98 14.89 C 17.39 19.07 24.56 27.95 22.99 41 Z" fill="url(#fl-0)"/><path d="M 11.19 41 C 10.41 32.91 14.93 27.4 15.64 24.81 C 16.34 27.4 19.84 32.91 19.06 41 Z" fill="oklch(0.92 0.198 68 / 0.55)"/><path d="M 13.89 41 C 12.29 29.01 19.19 20.85 20.63 17.02 C 22.06 20.85 31.46 29.01 29.86 41 Z" fill="url(#fl-1)"/><path d="M 17.88 41 C 17.08 33.57 20.41 28.51 21.13 26.13 C 21.84 28.51 26.67 33.57 25.87 41 Z" fill="oklch(0.92 0.198 68 / 0.55)"/><path d="M 20.51 41 C 18.89 24.45 28.82 13.19 30.28 7.89 C 31.74 13.19 38.36 24.45 36.74 41 Z" fill="url(#fl-2)"/><path d="M 24.57 41 C 23.76 30.74 28.89 23.76 29.62 20.47 C 30.35 23.76 33.49 30.74 32.68 41 Z" fill="oklch(0.92 0.198 68 / 0.55)"/><path d="M 27.14 41 C 25.49 25.51 33.44 14.97 34.93 10.02 C 36.41 14.97 45.26 25.51 43.61 41 Z" fill="url(#fl-3)"/><path d="M 31.26 41 C 30.43 31.4 34.36 24.86 35.11 21.79 C 35.85 24.86 40.32 31.4 39.49 41 Z" fill="oklch(0.92 0.198 68 / 0.55)"/><path d="M 34.51 41 C 32.99 25.82 40.81 15.5 42.18 10.64 C 43.55 15.5 51.26 25.82 49.74 41 Z" fill="url(#fl-4)"/><path d="M 38.32 41 C 37.56 31.59 41.47 25.19 42.16 22.18 C 42.84 25.19 46.69 31.59 45.93 41 Z" fill="oklch(0.92 0.198 68 / 0.55)"/><path d="M 41.14 41 C 39.59 26.88 45.43 17.28 46.83 12.77 C 48.22 17.28 58.16 26.88 56.61 41 Z" fill="url(#fl-5)"/><path d="M 45.01 41 C 44.23 32.25 46.95 26.3 47.65 23.5 C 48.34 26.3 53.52 32.25 52.74 41 Z" fill="oklch(0.92 0.198 68 / 0.55)"/><circle cx="32" cy="32" r="30" fill="url(#bl)"/><g><polygon points="32,12 49.32,22 40.66,27 32,22" fill="oklch(0.732 0.241 24)"/><polygon points="49.32,22 49.32,42 40.66,37 40.66,27" fill="oklch(0.562 0.294 37.5)"/><polygon points="49.32,42 32,52 32,42 40.66,37" fill="oklch(0.491 0.317 24)"/><polygon points="32,52 14.68,42 23.34,37 32,42" fill="oklch(0.588 0.286 37.5)"/><polygon points="14.68,42 14.68,22 23.34,27 23.34,37" fill="oklch(0.758 0.233 24)"/><polygon points="14.68,22 32,12 32,22 23.34,27" fill="oklch(0.829 0.21 37.5)"/><polygon points="32,22 40.66,27 40.66,37 32,42 23.34,37 23.34,27" fill="url(#g-tab)"/><circle cx="32" cy="32" r="9.8" fill="url(#g-core)"/><polygon points="32,12 49.32,22 49.32,42 32,52 14.68,42 14.68,22" fill="url(#g-shd)"/><line x1="32" y1="12" x2="32" y2="22" stroke="oklch(0.96 0.113 24 / 0.38)" stroke-width="0.35"/><line x1="49.32" y1="22" x2="40.66" y2="27" stroke="oklch(0.96 0.113 24 / 0.38)" stroke-width="0.35"/><line x1="49.32" y1="42" x2="40.66" y2="37" stroke="oklch(0.96 0.113 24 / 0.38)" stroke-width="0.35"/><line x1="32" y1="52" x2="32" y2="42" stroke="oklch(0.96 0.113 24 / 0.38)" stroke-width="0.35"/><line x1="14.68" y1="42" x2="23.34" y2="37" stroke="oklch(0.96 0.113 24 / 0.38)" stroke-width="0.35"/><line x1="14.68" y1="22" x2="23.34" y2="27" stroke="oklch(0.96 0.113 24 / 0.38)" stroke-width="0.35"/><polygon points="32,22 40.66,27 40.66,37 32,42 23.34,37 23.34,27" fill="none" stroke="oklch(0.94 0.142 24 / 0.5)" stroke-width="0.4"/><ellipse cx="28.24" cy="24.94" rx="6" ry="2.2" transform="rotate(-38 28.244227497712874 24.936419257128584)" fill="url(#g-spc)"/><polygon points="32,12 49.32,22 49.32,42 32,52 14.68,42 14.68,22" fill="none" stroke="url(#g-rim)" stroke-width="1.1" stroke-linejoin="round"/></g><polygon points="32,24.4 33.22,29.05 37.37,26.63 34.95,30.78 39.6,32 34.95,33.22 37.37,37.37 33.22,34.95 32,39.6 30.78,34.95 26.63,37.37 29.05,33.22 24.4,32 29.05,30.78 26.63,26.63 30.78,29.05" fill="url(#st)"/><circle cx="19.6" cy="21.32" r="0.55" fill="oklch(0.9 0.227 33.3 / 0.674)"/><circle cx="48.84" cy="9.64" r="1.21" fill="oklch(0.9 0.227 45.8 / 0.841)"/><circle cx="38.08" cy="25.97" r="0.99" fill="oklch(0.9 0.227 28.3 / 0.608)"/><circle cx="27.32" cy="14.29" r="0.77" fill="oklch(0.9 0.227 40.8 / 0.774)"/><circle cx="17.88" cy="5.13" r="0.55" fill="oklch(0.9 0.227 53.3 / 0.941)"/><circle cx="45.8" cy="18.94" r="1.21" fill="oklch(0.9 0.227 35.9 / 0.708)"/><circle cx="35.04" cy="7.26" r="0.99" fill="oklch(0.9 0.227 48.4 / 0.875)"/><circle cx="24.28" cy="23.59" r="0.77" fill="oklch(0.9 0.227 30.9 / 0.642)"/><circle cx="13.52" cy="11.91" r="0.55" fill="oklch(0.9 0.227 43.4 / 0.808)"/></svg>