<svg xmlns="http://www.w3.org/2000/svg" width="64" height="64" viewBox="0 0 64 64">
  <defs>
    <linearGradient id="g9" x1="0%" y1="100%" x2="100%" y2="0%">
      <stop offset="0%" stop-color="oklch(0.55 0.30 18.0)"/><stop offset="50%" stop-color="oklch(0.65 0.28 33.0)"/><stop offset="100%" stop-color="oklch(0.72 0.25 48.0)"/>
    </linearGradient>
    <radialGradient id="fl"><stop offset="0%" stop-color="oklch(0.80 0.25 48.0)" stop-opacity="0.5"/><stop offset="60%" stop-color="oklch(0.65 0.28 18.0)" stop-opacity="0.2"/><stop offset="100%" stop-color="oklch(0.65 0.28 18.0)" stop-opacity="0"/></radialGradient>
  </defs>
  <ellipse cx="32" cy="28.16" rx="26.88" ry="32.64" fill="url(#fl)"/>
  <circle cx="17.51" cy="19.40" r="0.6" fill="oklch(0.85 0.22 18.0)" opacity="0.50"/>
  <circle cx="24.19" cy="9.31" r="1" fill="oklch(0.85 0.22 38.0)" opacity="0.65"/>
  <circle cx="37.50" cy="3.73" r="0.6" fill="oklch(0.85 0.22 58.0)" opacity="0.80"/>
  <circle cx="44.60" cy="17.51" r="1" fill="oklch(0.85 0.22 78.0)" opacity="0.50"/>
  <circle cx="54.69" cy="24.19" r="0.6" fill="oklch(0.85 0.22 98.0)" opacity="0.65"/>
  <circle cx="60.27" cy="37.50" r="1" fill="oklch(0.85 0.22 118.0)" opacity="0.80"/>
  <circle cx="46.49" cy="44.60" r="0.6" fill="oklch(0.85 0.22 138.0)" opacity="0.50"/>
  <circle cx="39.81" cy="54.69" r="1" fill="oklch(0.85 0.22 158.0)" opacity="0.65"/>
  <circle cx="26.50" cy="60.27" r="0.6" fill="oklch(0.85 0.22 178.0)" opacity="0.80"/>
  <circle cx="19.40" cy="46.49" r="1" fill="oklch(0.85 0.22 198.0)" opacity="0.50"/>
  <circle cx="9.31" cy="39.81" r="0.6" fill="oklch(0.85 0.22 218.0)" opacity="0.65"/>
  <circle cx="3.73" cy="26.50" r="1" fill="oklch(0.85 0.22 238.0)" opacity="0.80"/>
  <polygon points="32.00,12.80 48.63,22.40 48.63,41.60 32.00,51.20 15.37,41.60 15.37,22.40" fill="url(#g9)" stroke="oklch(0.72 0.28 18.0)" stroke-width="1.5"/>
  <polygon points="32.00,23.36 33.47,28.45 38.11,25.89 35.55,30.53 40.64,32.00 35.55,33.47 38.11,38.11 33.47,35.55 32.00,40.64 30.53,35.55 25.89,38.11 28.45,33.47 23.36,32.00 28.45,30.53 25.89,25.89 30.53,28.45" fill="oklch(0.80 0.24 33.0)" opacity="0.4"/>
</svg>