<svg xmlns="http://www.w3.org/2000/svg" width="64" height="64" viewBox="0 0 64 64"><defs><linearGradient id="fl-0" x1="0%" y1="100%" x2="0%" y2="0%"><stop offset="0%" stop-color="oklch(0.62 0.27 15 / 0.1)"/><stop offset="45%" stop-color="oklch(0.72 0.27 29 / 0.5)"/><stop offset="100%" stop-color="oklch(0.9 0.203 49 / 0.85)"/></linearGradient><linearGradient id="fl-1" x1="0%" y1="100%" x2="0%" y2="0%"><stop offset="0%" stop-color="oklch(0.62 0.27 15 / 0.1)"/><stop offset="45%" stop-color="oklch(0.72 0.27 29 / 0.5)"/><stop offset="100%" stop-color="oklch(0.9 0.203 49 / 0.85)"/></linearGradient><linearGradient id="fl-2" x1="0%" y1="100%" x2="0%" y2="0%"><stop offset="0%" stop-color="oklch(0.62 0.27 15 / 0.1)"/><stop offset="45%" stop-color="oklch(0.72 0.27 29 / 0.5)"/><stop offset="100%" stop-color="oklch(0.9 0.203 49 / 0.85)"/></linearGradient><linearGradient id="fl-3" x1="0%" y1="100%" x2="0%" y2="0%"><stop offset="0%" stop-color="oklch(0.62 0.27 15 / 0.1)"/><stop offset="45%" stop-color="oklch(0.72 0.27 29 / 0.5)"/><stop offset="100%" stop-color="oklch(0.9 0.203 49 / 0.85)"/></linearGradient><linearGradient id="fl-4" x1="0%" y1="100%" x2="0%" y2="0%"><stop offset="0%" stop-color="oklch(0.62 0.27 15 / 0.1)"/><stop offset="45%" stop-color="oklch(0.72 0.27 29 / 0.5)"/><stop offset="100%" stop-color="oklch(0.9 0.203 49 / 0.85)"/></linearGradient><linearGradient id="fl-5" x1="0%" y1="100%" x2="0%" y2="0%"><stop offset="0%" stop-color="oklch(0.62 0.27 15 / 0.1)"/><stop offset="45%" stop-color="oklch(0.72 0.27 29 / 0.5)"/><stop offset="100%" stop-color="oklch(0.9 0.203 49 / 0.85)"/></linearGradient><radialGradient id="bl"><stop offset="0%" stop-color="oklch(0.8 0.2 35 / 0.42)"/><stop offset="55%" stop-color="oklch(0.8 0.2 35 / 0.147)"/><stop offset="100%" stop-color="oklch(0.8 0.2 35 / 0)"/></radialGradient><linearGradient id="g-tab" x1="0%" y1="0%" x2="100%" y2="100%"><stop offset="0%" stop-color="oklch(0.78 0.216 15)"/><stop offset="55%" stop-color="oklch(0.62 0.284 15)"/><stop offset="100%" stop-color="oklch(0.51 0.297 15)"/></linearGradient><radialGradient id="g-core" cx="44%" cy="42%" r="62%"><stop offset="0%" stop-color="oklch(0.98 0.081 15 / 0.95)"/><stop offset="42%" stop-color="oklch(0.78 0.23 15 / 0.4)"/><stop offset="100%" stop-color="oklch(0.74 0.27 15 / 0)"/></radialGradient><linearGradient id="g-shd" x1="0%" y1="0%" x2="100%" y2="100%"><stop offset="0%" stop-color="oklch(1 0 15 / 0.18)"/><stop offset="40%" stop-color="oklch(1 0 15 / 0)"/><stop offset="100%" stop-color="oklch(0.08 0.054 15 / 0.5)"/></linearGradient><linearGradient id="g-rim" x1="0%" y1="0%" x2="100%" y2="100%"><stop offset="0%" stop-color="oklch(0.98 0.041 15 / 0.95)"/><stop offset="50%" stop-color="oklch(0.86 0.162 15 / 0.5)"/><stop offset="100%" stop-color="oklch(0.44 0.162 15 / 0.55)"/></linearGradient><radialGradient id="g-spc" cx="50%" cy="50%" r="50%"><stop offset="0%" stop-color="oklch(1 0 15 / 0.9)"/><stop offset="55%" stop-color="oklch(1 0 15 / 0.25)"/><stop offset="100%" stop-color="oklch(1 0 15 / 0)"/></radialGradient><radialGradient id="st"><stop offset="0%" stop-color="oklch(0.99 0.041 55 / 0.5)"/><stop offset="60%" stop-color="oklch(0.9 0.135 55 / 0.3)"/><stop offset="100%" stop-color="oklch(0.85 0.162 55 / 0)"/></radialGradient></defs><path d="M 7.62 41 C 6.11 28.32 14.59 19.7 15.94 15.65 C 17.29 19.7 24.14 28.32 22.63 41 Z" fill="url(#fl-0)"/><path d="M 11.37 41 C 10.62 33.14 14.94 27.8 15.61 25.28 C 16.29 27.8 19.63 33.14 18.88 41 Z" fill="oklch(0.92 0.189 59 / 0.55)"/><path d="M 14.99 41 C 13.61 28.64 21.95 20.23 23.19 16.27 C 24.43 20.23 30.14 28.64 28.76 41 Z" fill="url(#fl-1)"/><path d="M 18.43 41 C 17.74 33.33 22.04 28.12 22.66 25.67 C 23.28 28.12 26.01 33.33 25.32 41 Z" fill="oklch(0.92 0.189 59 / 0.55)"/><path d="M 21.62 41 C 20.21 24.07 26.58 12.56 27.84 7.15 C 29.1 12.56 37.04 24.07 35.63 41 Z" fill="url(#fl-2)"/><path d="M 25.12 41 C 24.42 30.51 27.52 23.37 28.15 20.01 C 28.78 23.37 32.83 30.51 32.13 41 Z" fill="oklch(0.92 0.189 59 / 0.55)"/><path d="M 28.24 41 C 26.81 25.14 36.2 14.35 37.49 9.27 C 38.77 14.35 43.94 25.14 42.51 41 Z" fill="url(#fl-3)"/><path d="M 31.81 41 C 31.09 31.16 36 24.48 36.64 21.33 C 37.28 24.48 39.66 31.16 38.94 41 Z" fill="oklch(0.92 0.189 59 / 0.55)"/><path d="M 34.87 41 C 33.41 26.2 40.83 16.13 42.14 11.4 C 43.44 16.13 50.84 26.2 49.38 41 Z" fill="url(#fl-4)"/><path d="M 38.5 41 C 37.77 31.82 41.48 25.58 42.13 22.65 C 42.79 25.58 46.48 31.82 45.75 41 Z" fill="oklch(0.92 0.189 59 / 0.55)"/><path d="M 41.49 41 C 40.01 27.26 45.46 17.92 46.79 13.52 C 48.12 17.92 57.74 27.26 56.26 41 Z" fill="url(#fl-5)"/><path d="M 45.18 41 C 44.44 32.48 46.96 26.69 47.62 23.96 C 48.29 26.69 53.31 32.48 52.57 41 Z" fill="oklch(0.92 0.189 59 / 0.55)"/><circle cx="32" cy="32" r="30" fill="url(#bl)"/><g><polygon points="32,12 49.32,22 40.66,27 32,22" fill="oklch(0.712 0.229 15)"/><polygon points="49.32,22 49.32,42 40.66,37 40.66,27" fill="oklch(0.542 0.281 28.5)"/><polygon points="49.32,42 32,52 32,42 40.66,37" fill="oklch(0.471 0.302 15)"/><polygon points="32,52 14.68,42 23.34,37 32,42" fill="oklch(0.568 0.273 28.5)"/><polygon points="14.68,42 14.68,22 23.34,27 23.34,37" fill="oklch(0.738 0.222 15)"/><polygon points="14.68,22 32,12 32,22 23.34,27" fill="oklch(0.809 0.2 28.5)"/><polygon points="32,22 40.66,27 40.66,37 32,42 23.34,37 23.34,27" fill="url(#g-tab)"/><circle cx="32" cy="32" r="9.8" fill="url(#g-core)"/><polygon points="32,12 49.32,22 49.32,42 32,52 14.68,42 14.68,22" fill="url(#g-shd)"/><line x1="32" y1="12" x2="32" y2="22" stroke="oklch(0.94 0.108 15 / 0.38)" stroke-width="0.35"/><line x1="49.32" y1="22" x2="40.66" y2="27" stroke="oklch(0.94 0.108 15 / 0.38)" stroke-width="0.35"/><line x1="49.32" y1="42" x2="40.66" y2="37" stroke="oklch(0.94 0.108 15 / 0.38)" stroke-width="0.35"/><line x1="32" y1="52" x2="32" y2="42" stroke="oklch(0.94 0.108 15 / 0.38)" stroke-width="0.35"/><line x1="14.68" y1="42" x2="23.34" y2="37" stroke="oklch(0.94 0.108 15 / 0.38)" stroke-width="0.35"/><line x1="14.68" y1="22" x2="23.34" y2="27" stroke="oklch(0.94 0.108 15 / 0.38)" stroke-width="0.35"/><polygon points="32,22 40.66,27 40.66,37 32,42 23.34,37 23.34,27" fill="none" stroke="oklch(0.92 0.135 15 / 0.5)" stroke-width="0.4"/><ellipse cx="28.24" cy="24.94" rx="6" ry="2.2" transform="rotate(-38 28.244227497712874 24.936419257128584)" fill="url(#g-spc)"/><polygon points="32,12 49.32,22 49.32,42 32,52 14.68,42 14.68,22" fill="none" stroke="url(#g-rim)" stroke-width="1.1" stroke-linejoin="round"/></g><polygon points="32,24.4 33.22,29.05 37.37,26.63 34.95,30.78 39.6,32 34.95,33.22 37.37,37.37 33.22,34.95 32,39.6 30.78,34.95 26.63,37.37 29.05,33.22 24.4,32 29.05,30.78 26.63,26.63 30.78,29.05" fill="url(#st)"/><circle cx="50.8" cy="15.16" r="0.55" fill="oklch(0.9 0.216 30.9 / 0.762)"/><circle cx="40.04" cy="3.48" r="1.21" fill="oklch(0.9 0.216 43.4 / 0.929)"/><circle cx="29.28" cy="19.81" r="0.99" fill="oklch(0.9 0.216 25.9 / 0.696)"/><circle cx="18.52" cy="8.13" r="0.77" fill="oklch(0.9 0.216 38.4 / 0.862)"/><circle cx="47.76" cy="24.46" r="0.55" fill="oklch(0.9 0.216 20.9 / 0.629)"/><circle cx="37" cy="12.78" r="1.21" fill="oklch(0.9 0.216 33.5 / 0.796)"/><circle cx="26.24" cy="29.1" r="0.99" fill="oklch(0.9 0.216 16 / 0.563)"/><circle cx="15.48" cy="17.43" r="0.77" fill="oklch(0.9 0.216 28.5 / 0.73)"/><circle cx="44.72" cy="5.75" r="0.55" fill="oklch(0.9 0.216 41 / 0.896)"/></svg>