<svg xmlns="http://www.w3.org/2000/svg" width="64" height="64" viewBox="0 0 64 64">
  <defs>
    <linearGradient id="g9" x1="0%" y1="100%" x2="100%" y2="0%">
      <stop offset="0%" stop-color="oklch(0.55 0.30 16.5)"/><stop offset="50%" stop-color="oklch(0.65 0.28 31.5)"/><stop offset="100%" stop-color="oklch(0.72 0.25 46.5)"/>
    </linearGradient>
    <radialGradient id="fl"><stop offset="0%" stop-color="oklch(0.80 0.25 46.5)" stop-opacity="0.5"/><stop offset="60%" stop-color="oklch(0.65 0.28 16.5)" stop-opacity="0.2"/><stop offset="100%" stop-color="oklch(0.65 0.28 16.5)" stop-opacity="0"/></radialGradient>
  </defs>
  <ellipse cx="32" cy="28.16" rx="26.88" ry="32.64" fill="url(#fl)"/>
  <circle cx="16.08" cy="21.26" r="0.6" fill="oklch(0.85 0.22 16.5)" opacity="0.50"/>
  <circle cx="21.48" cy="10.43" r="1" fill="oklch(0.85 0.22 36.5)" opacity="0.65"/>
  <circle cx="34.01" cy="3.27" r="0.6" fill="oklch(0.85 0.22 56.5)" opacity="0.80"/>
  <circle cx="42.74" cy="16.08" r="1" fill="oklch(0.85 0.22 76.5)" opacity="0.50"/>
  <circle cx="53.57" cy="21.48" r="0.6" fill="oklch(0.85 0.22 96.5)" opacity="0.65"/>
  <circle cx="60.73" cy="34.01" r="1" fill="oklch(0.85 0.22 116.5)" opacity="0.80"/>
  <circle cx="47.92" cy="42.74" r="0.6" fill="oklch(0.85 0.22 136.5)" opacity="0.50"/>
  <circle cx="42.52" cy="53.57" r="1" fill="oklch(0.85 0.22 156.5)" opacity="0.65"/>
  <circle cx="29.99" cy="60.73" r="0.6" fill="oklch(0.85 0.22 176.5)" opacity="0.80"/>
  <circle cx="21.26" cy="47.92" r="1" fill="oklch(0.85 0.22 196.5)" opacity="0.50"/>
  <circle cx="10.43" cy="42.52" r="0.6" fill="oklch(0.85 0.22 216.5)" opacity="0.65"/>
  <circle cx="3.27" cy="29.99" r="1" fill="oklch(0.85 0.22 236.5)" opacity="0.80"/>
  <polygon points="32.00,12.80 48.63,22.40 48.63,41.60 32.00,51.20 15.37,41.60 15.37,22.40" fill="url(#g9)" stroke="oklch(0.72 0.28 16.5)" stroke-width="1.5"/>
  <polygon points="32.00,23.36 33.47,28.45 38.11,25.89 35.55,30.53 40.64,32.00 35.55,33.47 38.11,38.11 33.47,35.55 32.00,40.64 30.53,35.55 25.89,38.11 28.45,33.47 23.36,32.00 28.45,30.53 25.89,25.89 30.53,28.45" fill="oklch(0.80 0.24 31.5)" opacity="0.4"/>
</svg>