<svg xmlns="http://www.w3.org/2000/svg" width="64" height="64" viewBox="0 0 64 64">
  <defs>
    <linearGradient id="rb" x1="0%" y1="0%" x2="100%" y2="100%">
      <stop offset="0%" stop-color="oklch(0.70 0.30 0.0)"/><stop offset="50%" stop-color="oklch(0.60 0.28 180.0)"/><stop offset="100%" stop-color="oklch(0.50 0.26 300.0)"/>
    </linearGradient>
    <radialGradient id="pglow"><stop offset="0%" stop-color="oklch(0.85 0.20 60)" stop-opacity="0.5"/><stop offset="100%" stop-color="oklch(0.85 0.20 60)" stop-opacity="0"/></radialGradient>
  </defs>
  <circle cx="32" cy="32" r="32.77" fill="url(#pglow)"/>
  <line x1="44.29" y1="32.00" x2="62.72" y2="32.00" stroke="oklch(0.80 0.25 0.0)" stroke-width="0.6" opacity="0.2"/>
  <line x1="42.64" y1="38.14" x2="58.60" y2="47.36" stroke="oklch(0.80 0.25 30.0)" stroke-width="0.6" opacity="0.2"/>
  <line x1="38.14" y1="42.64" x2="47.36" y2="58.60" stroke="oklch(0.80 0.25 60.0)" stroke-width="0.6" opacity="0.2"/>
  <line x1="32.00" y1="44.29" x2="32.00" y2="62.72" stroke="oklch(0.80 0.25 90.0)" stroke-width="0.6" opacity="0.2"/>
  <line x1="25.86" y1="42.64" x2="16.64" y2="58.60" stroke="oklch(0.80 0.25 120.0)" stroke-width="0.6" opacity="0.2"/>
  <line x1="21.36" y1="38.14" x2="5.40" y2="47.36" stroke="oklch(0.80 0.25 150.0)" stroke-width="0.6" opacity="0.2"/>
  <line x1="19.71" y1="32.00" x2="1.28" y2="32.00" stroke="oklch(0.80 0.25 180.0)" stroke-width="0.6" opacity="0.2"/>
  <line x1="21.36" y1="25.86" x2="5.40" y2="16.64" stroke="oklch(0.80 0.25 210.0)" stroke-width="0.6" opacity="0.2"/>
  <line x1="25.86" y1="21.36" x2="16.64" y2="5.40" stroke="oklch(0.80 0.25 240.0)" stroke-width="0.6" opacity="0.2"/>
  <line x1="32.00" y1="19.71" x2="32.00" y2="1.28" stroke="oklch(0.80 0.25 270.0)" stroke-width="0.6" opacity="0.2"/>
  <line x1="38.14" y1="21.36" x2="47.36" y2="5.40" stroke="oklch(0.80 0.25 300.0)" stroke-width="0.6" opacity="0.2"/>
  <line x1="42.64" y1="25.86" x2="58.60" y2="16.64" stroke="oklch(0.80 0.25 330.0)" stroke-width="0.6" opacity="0.2"/>
  <polygon points="32.00,11.52 49.74,21.76 49.74,42.24 32.00,52.48 14.26,42.24 14.26,21.76" fill="url(#rb)" stroke="oklch(0.75 0.25 60)" stroke-width="1.5"/>
  <polygon points="32.00,21.76 34.56,27.57 40.87,26.88 37.12,32.00 40.87,37.12 34.56,36.43 32.00,42.24 29.44,36.43 23.13,37.12 26.88,32.00 23.13,26.88 29.44,27.57" fill="oklch(0.85 0.15 60)" opacity="0.4"/>
  <circle cx="53.76" cy="41.01" r="0.9" fill="oklch(0.90 0.20 0.0)" opacity="0.6"/>
  <circle cx="41.01" cy="53.76" r="0.9" fill="oklch(0.90 0.20 45.0)" opacity="0.6"/>
  <circle cx="22.99" cy="53.76" r="0.9" fill="oklch(0.90 0.20 90.0)" opacity="0.6"/>
  <circle cx="10.24" cy="41.01" r="0.9" fill="oklch(0.90 0.20 135.0)" opacity="0.6"/>
  <circle cx="10.24" cy="22.99" r="0.9" fill="oklch(0.90 0.20 180.0)" opacity="0.6"/>
  <circle cx="22.99" cy="10.24" r="0.9" fill="oklch(0.90 0.20 225.0)" opacity="0.6"/>
  <circle cx="41.01" cy="10.24" r="0.9" fill="oklch(0.90 0.20 270.0)" opacity="0.6"/>
  <circle cx="53.76" cy="22.99" r="0.9" fill="oklch(0.90 0.20 315.0)" opacity="0.6"/>
</svg>