<svg xmlns="http://www.w3.org/2000/svg" width="64" height="64" viewBox="0 0 64 64"><defs><radialGradient id="bl"><stop offset="0%" stop-color="oklch(0.78 0.18 67 / 0.45)"/><stop offset="55%" stop-color="oklch(0.78 0.18 67 / 0.158)"/><stop offset="100%" stop-color="oklch(0.78 0.18 67 / 0)"/></radialGradient><linearGradient id="g-tab" x1="0%" y1="0%" x2="100%" y2="100%"><stop offset="0%" stop-color="oklch(0.8 0.195 67)"/><stop offset="55%" stop-color="oklch(0.64 0.256 67)"/><stop offset="100%" stop-color="oklch(0.53 0.268 67)"/></linearGradient><radialGradient id="g-core" cx="44%" cy="42%" r="62%"><stop offset="0%" stop-color="oklch(1 0.073 67 / 0.903)"/><stop offset="42%" stop-color="oklch(0.8 0.207 67 / 0.38)"/><stop offset="100%" stop-color="oklch(0.76 0.243 67 / 0)"/></radialGradient><linearGradient id="g-shd" x1="0%" y1="0%" x2="100%" y2="100%"><stop offset="0%" stop-color="oklch(1 0 67 / 0.18)"/><stop offset="40%" stop-color="oklch(1 0 67 / 0)"/><stop offset="100%" stop-color="oklch(0.08 0.049 67 / 0.5)"/></linearGradient><linearGradient id="g-rim" x1="0%" y1="0%" x2="100%" y2="100%"><stop offset="0%" stop-color="oklch(0.98 0.037 67 / 0.95)"/><stop offset="50%" stop-color="oklch(0.88 0.146 67 / 0.5)"/><stop offset="100%" stop-color="oklch(0.46 0.146 67 / 0.55)"/></linearGradient><radialGradient id="g-spc" cx="50%" cy="50%" r="50%"><stop offset="0%" stop-color="oklch(1 0 67 / 0.9)"/><stop offset="55%" stop-color="oklch(1 0 67 / 0.25)"/><stop offset="100%" stop-color="oklch(1 0 67 / 0)"/></radialGradient><radialGradient id="st"><stop offset="0%" stop-color="oklch(0.99 0.037 99 / 0.55)"/><stop offset="60%" stop-color="oklch(0.9 0.122 99 / 0.33)"/><stop offset="100%" stop-color="oklch(0.85 0.146 99 / 0)"/></radialGradient></defs><circle cx="32" cy="32" r="31.5" fill="url(#bl)"/><circle cx="32" cy="32" r="26.5" fill="none" stroke="oklch(0.84 0.146 67 / 0.5)" stroke-width="0.9"/><g><polygon points="32,13 48.45,22.5 40.23,27.25 32,22.5" fill="oklch(0.73 0.207 67)"/><polygon points="48.45,22.5 48.45,41.5 40.23,36.75 40.23,27.25" fill="oklch(0.565 0.253 81.4)"/><polygon points="48.45,41.5 32,51 32,41.5 40.23,36.75" fill="oklch(0.496 0.272 67)"/><polygon points="32,51 15.55,41.5 23.77,36.75 32,41.5" fill="oklch(0.59 0.246 81.4)"/><polygon points="15.55,41.5 15.55,22.5 23.77,27.25 23.77,36.75" fill="oklch(0.755 0.2 67)"/><polygon points="15.55,22.5 32,13 32,22.5 23.77,27.25" fill="oklch(0.824 0.18 81.4)"/><polygon points="32,22.5 40.23,27.25 40.23,36.75 32,41.5 23.77,36.75 23.77,27.25" fill="url(#g-tab)"/><circle cx="32" cy="32" r="9.31" fill="url(#g-core)"/><polygon points="32,13 48.45,22.5 48.45,41.5 32,51 15.55,41.5 15.55,22.5" fill="url(#g-shd)"/><line x1="32" y1="13" x2="32" y2="22.5" stroke="oklch(0.96 0.097 67 / 0.38)" stroke-width="0.35"/><line x1="48.45" y1="22.5" x2="40.23" y2="27.25" stroke="oklch(0.96 0.097 67 / 0.38)" stroke-width="0.35"/><line x1="48.45" y1="41.5" x2="40.23" y2="36.75" stroke="oklch(0.96 0.097 67 / 0.38)" stroke-width="0.35"/><line x1="32" y1="51" x2="32" y2="41.5" stroke="oklch(0.96 0.097 67 / 0.38)" stroke-width="0.35"/><line x1="15.55" y1="41.5" x2="23.77" y2="36.75" stroke="oklch(0.96 0.097 67 / 0.38)" stroke-width="0.35"/><line x1="15.55" y1="22.5" x2="23.77" y2="27.25" stroke="oklch(0.96 0.097 67 / 0.38)" stroke-width="0.35"/><polygon points="32,22.5 40.23,27.25 40.23,36.75 32,41.5 23.77,36.75 23.77,27.25" fill="none" stroke="oklch(0.94 0.122 67 / 0.5)" stroke-width="0.4"/><ellipse cx="28.43" cy="25.29" rx="5.7" ry="2.09" transform="rotate(-38 28.43201612282723 25.289598294272153)" fill="url(#g-spc)"/><polygon points="32,13 48.45,22.5 48.45,41.5 32,51 15.55,41.5 15.55,22.5" fill="none" stroke="url(#g-rim)" stroke-width="1.1" stroke-linejoin="round"/></g><polygon points="32,25.16 33.44,29.51 37.92,28.58 34.87,32 37.92,35.42 33.44,34.49 32,38.84 30.56,34.49 26.08,35.42 29.13,32 26.08,28.58 30.56,29.51" fill="url(#st)"/><g><circle cx="42.78" cy="7.79" r="4.18" fill="oklch(0.8 0.243 57 / 0.22)"/><circle cx="42.78" cy="7.79" r="1.9" fill="oklch(0.9 0.17 57 / 0.95)"/><circle cx="42.78" cy="7.79" r="0.86" fill="oklch(1 0 57 / 0.9)"/></g><g><circle cx="58.35" cy="34.77" r="4.18" fill="oklch(0.8 0.243 64 / 0.22)"/><circle cx="58.35" cy="34.77" r="1.9" fill="oklch(0.9 0.17 64 / 0.95)"/><circle cx="58.35" cy="34.77" r="0.86" fill="oklch(1 0 64 / 0.9)"/></g><g><circle cx="37.51" cy="57.92" r="4.18" fill="oklch(0.8 0.243 71 / 0.22)"/><circle cx="37.51" cy="57.92" r="1.9" fill="oklch(0.9 0.17 71 / 0.95)"/><circle cx="37.51" cy="57.92" r="0.86" fill="oklch(1 0 71 / 0.9)"/></g><g><circle cx="9.05" cy="45.25" r="4.18" fill="oklch(0.8 0.243 78 / 0.22)"/><circle cx="9.05" cy="45.25" r="1.9" fill="oklch(0.9 0.17 78 / 0.95)"/><circle cx="9.05" cy="45.25" r="0.86" fill="oklch(1 0 78 / 0.9)"/></g><g><circle cx="12.31" cy="14.27" r="4.18" fill="oklch(0.8 0.243 85 / 0.22)"/><circle cx="12.31" cy="14.27" r="1.9" fill="oklch(0.9 0.17 85 / 0.95)"/><circle cx="12.31" cy="14.27" r="0.86" fill="oklch(1 0 85 / 0.9)"/></g></svg>