<svg xmlns="http://www.w3.org/2000/svg" width="64" height="64" viewBox="0 0 64 64">
  <defs>
    <linearGradient id="g9" x1="0%" y1="100%" x2="100%" y2="0%">
      <stop offset="0%" stop-color="oklch(0.55 0.30 24.0)"/><stop offset="50%" stop-color="oklch(0.65 0.28 39.0)"/><stop offset="100%" stop-color="oklch(0.72 0.25 54.0)"/>
    </linearGradient>
    <radialGradient id="fl"><stop offset="0%" stop-color="oklch(0.80 0.25 54.0)" stop-opacity="0.5"/><stop offset="60%" stop-color="oklch(0.65 0.28 24.0)" stop-opacity="0.2"/><stop offset="100%" stop-color="oklch(0.65 0.28 24.0)" stop-opacity="0"/></radialGradient>
  </defs>
  <ellipse cx="32" cy="28.16" rx="26.88" ry="32.64" fill="url(#fl)"/>
  <circle cx="25.12" cy="14.08" r="0.6" fill="oklch(0.85 0.22 24.0)" opacity="0.50"/>
  <circle cx="35.75" cy="8.30" r="1" fill="oklch(0.85 0.22 44.0)" opacity="0.65"/>
  <circle cx="50.12" cy="9.62" r="0.6" fill="oklch(0.85 0.22 64.0)" opacity="0.80"/>
  <circle cx="49.92" cy="25.12" r="1" fill="oklch(0.85 0.22 84.0)" opacity="0.50"/>
  <circle cx="55.70" cy="35.75" r="0.6" fill="oklch(0.85 0.22 104.0)" opacity="0.65"/>
  <circle cx="54.38" cy="50.12" r="1" fill="oklch(0.85 0.22 124.0)" opacity="0.80"/>
  <circle cx="38.88" cy="49.92" r="0.6" fill="oklch(0.85 0.22 144.0)" opacity="0.50"/>
  <circle cx="28.25" cy="55.70" r="1" fill="oklch(0.85 0.22 164.0)" opacity="0.65"/>
  <circle cx="13.88" cy="54.38" r="0.6" fill="oklch(0.85 0.22 184.0)" opacity="0.80"/>
  <circle cx="14.08" cy="38.88" r="1" fill="oklch(0.85 0.22 204.0)" opacity="0.50"/>
  <circle cx="8.30" cy="28.25" r="0.6" fill="oklch(0.85 0.22 224.0)" opacity="0.65"/>
  <circle cx="9.62" cy="13.88" r="1" fill="oklch(0.85 0.22 244.0)" opacity="0.80"/>
  <polygon points="32.00,12.80 48.63,22.40 48.63,41.60 32.00,51.20 15.37,41.60 15.37,22.40" fill="url(#g9)" stroke="oklch(0.72 0.28 24.0)" stroke-width="1.5"/>
  <polygon points="32.00,23.36 33.47,28.45 38.11,25.89 35.55,30.53 40.64,32.00 35.55,33.47 38.11,38.11 33.47,35.55 32.00,40.64 30.53,35.55 25.89,38.11 28.45,33.47 23.36,32.00 28.45,30.53 25.89,25.89 30.53,28.45" fill="oklch(0.80 0.24 39.0)" opacity="0.4"/>
</svg>