<svg xmlns="http://www.w3.org/2000/svg" width="64" height="64" viewBox="0 0 64 64">
  <defs>
    <linearGradient id="g9" x1="0%" y1="100%" x2="100%" y2="0%">
      <stop offset="0%" stop-color="oklch(0.55 0.30 22.5)"/><stop offset="50%" stop-color="oklch(0.65 0.28 37.5)"/><stop offset="100%" stop-color="oklch(0.72 0.25 52.5)"/>
    </linearGradient>
    <radialGradient id="fl"><stop offset="0%" stop-color="oklch(0.80 0.25 52.5)" stop-opacity="0.5"/><stop offset="60%" stop-color="oklch(0.65 0.28 22.5)" stop-opacity="0.2"/><stop offset="100%" stop-color="oklch(0.65 0.28 22.5)" stop-opacity="0"/></radialGradient>
  </defs>
  <ellipse cx="32" cy="28.16" rx="26.88" ry="32.64" fill="url(#fl)"/>
  <circle cx="22.99" cy="15.05" r="0.6" fill="oklch(0.85 0.22 22.5)" opacity="0.50"/>
  <circle cx="32.84" cy="8.01" r="1" fill="oklch(0.85 0.22 42.5)" opacity="0.65"/>
  <circle cx="47.26" cy="7.58" r="0.6" fill="oklch(0.85 0.22 62.5)" opacity="0.80"/>
  <circle cx="48.95" cy="22.99" r="1" fill="oklch(0.85 0.22 82.5)" opacity="0.50"/>
  <circle cx="55.99" cy="32.84" r="0.6" fill="oklch(0.85 0.22 102.5)" opacity="0.65"/>
  <circle cx="56.42" cy="47.26" r="1" fill="oklch(0.85 0.22 122.5)" opacity="0.80"/>
  <circle cx="41.01" cy="48.95" r="0.6" fill="oklch(0.85 0.22 142.5)" opacity="0.50"/>
  <circle cx="31.16" cy="55.99" r="1" fill="oklch(0.85 0.22 162.5)" opacity="0.65"/>
  <circle cx="16.74" cy="56.42" r="0.6" fill="oklch(0.85 0.22 182.5)" opacity="0.80"/>
  <circle cx="15.05" cy="41.01" r="1" fill="oklch(0.85 0.22 202.5)" opacity="0.50"/>
  <circle cx="8.01" cy="31.16" r="0.6" fill="oklch(0.85 0.22 222.5)" opacity="0.65"/>
  <circle cx="7.58" cy="16.74" r="1" fill="oklch(0.85 0.22 242.5)" opacity="0.80"/>
  <polygon points="32.00,12.80 48.63,22.40 48.63,41.60 32.00,51.20 15.37,41.60 15.37,22.40" fill="url(#g9)" stroke="oklch(0.72 0.28 22.5)" stroke-width="1.5"/>
  <polygon points="32.00,23.36 33.47,28.45 38.11,25.89 35.55,30.53 40.64,32.00 35.55,33.47 38.11,38.11 33.47,35.55 32.00,40.64 30.53,35.55 25.89,38.11 28.45,33.47 23.36,32.00 28.45,30.53 25.89,25.89 30.53,28.45" fill="oklch(0.80 0.24 37.5)" opacity="0.4"/>
</svg>