<svg xmlns="http://www.w3.org/2000/svg" width="64" height="64" viewBox="0 0 64 64">
  <defs>
    <linearGradient id="g9" x1="0%" y1="100%" x2="100%" y2="0%">
      <stop offset="0%" stop-color="oklch(0.55 0.30 27.0)"/><stop offset="50%" stop-color="oklch(0.65 0.28 42.0)"/><stop offset="100%" stop-color="oklch(0.72 0.25 57.0)"/>
    </linearGradient>
    <radialGradient id="fl"><stop offset="0%" stop-color="oklch(0.80 0.25 57.0)" stop-opacity="0.5"/><stop offset="60%" stop-color="oklch(0.65 0.28 27.0)" stop-opacity="0.2"/><stop offset="100%" stop-color="oklch(0.65 0.28 27.0)" stop-opacity="0"/></radialGradient>
  </defs>
  <ellipse cx="32" cy="28.16" rx="26.88" ry="32.64" fill="url(#fl)"/>
  <circle cx="29.66" cy="12.94" r="0.6" fill="oklch(0.85 0.22 27.0)" opacity="0.50"/>
  <circle cx="41.38" cy="9.91" r="1" fill="oklch(0.85 0.22 47.0)" opacity="0.65"/>
  <circle cx="55.00" cy="14.67" r="0.6" fill="oklch(0.85 0.22 67.0)" opacity="0.80"/>
  <circle cx="51.06" cy="29.66" r="1" fill="oklch(0.85 0.22 87.0)" opacity="0.50"/>
  <circle cx="54.09" cy="41.38" r="0.6" fill="oklch(0.85 0.22 107.0)" opacity="0.65"/>
  <circle cx="49.33" cy="55.00" r="1" fill="oklch(0.85 0.22 127.0)" opacity="0.80"/>
  <circle cx="34.34" cy="51.06" r="0.6" fill="oklch(0.85 0.22 147.0)" opacity="0.50"/>
  <circle cx="22.62" cy="54.09" r="1" fill="oklch(0.85 0.22 167.0)" opacity="0.65"/>
  <circle cx="9.00" cy="49.33" r="0.6" fill="oklch(0.85 0.22 187.0)" opacity="0.80"/>
  <circle cx="12.94" cy="34.34" r="1" fill="oklch(0.85 0.22 207.0)" opacity="0.50"/>
  <circle cx="9.91" cy="22.62" r="0.6" fill="oklch(0.85 0.22 227.0)" opacity="0.65"/>
  <circle cx="14.67" cy="9.00" r="1" fill="oklch(0.85 0.22 247.0)" opacity="0.80"/>
  <polygon points="32.00,12.80 48.63,22.40 48.63,41.60 32.00,51.20 15.37,41.60 15.37,22.40" fill="url(#g9)" stroke="oklch(0.72 0.28 27.0)" stroke-width="1.5"/>
  <polygon points="32.00,23.36 33.47,28.45 38.11,25.89 35.55,30.53 40.64,32.00 35.55,33.47 38.11,38.11 33.47,35.55 32.00,40.64 30.53,35.55 25.89,38.11 28.45,33.47 23.36,32.00 28.45,30.53 25.89,25.89 30.53,28.45" fill="oklch(0.80 0.24 42.0)" opacity="0.4"/>
</svg>