<svg xmlns="http://www.w3.org/2000/svg" width="64" height="64" viewBox="0 0 64 64"><defs><radialGradient id="bl"><stop offset="0%" stop-color="oklch(0.78 0.04 36 / 0.16)"/><stop offset="55%" stop-color="oklch(0.78 0.04 36 / 0.056)"/><stop offset="100%" stop-color="oklch(0.78 0.04 36 / 0)"/></radialGradient><linearGradient id="g-tab" x1="0%" y1="0%" x2="100%" y2="100%"><stop offset="0%" stop-color="oklch(0.71 0.032 36)"/><stop offset="55%" stop-color="oklch(0.55 0.042 36)"/><stop offset="100%" stop-color="oklch(0.44 0.044 36)"/></linearGradient><radialGradient id="g-core" cx="44%" cy="42%" r="62%"><stop offset="0%" stop-color="oklch(0.91 0.012 36 / 0.428)"/><stop offset="42%" stop-color="oklch(0.71 0.034 36 / 0.18)"/><stop offset="100%" stop-color="oklch(0.67 0.04 36 / 0)"/></radialGradient><linearGradient id="g-shd" x1="0%" y1="0%" x2="100%" y2="100%"><stop offset="0%" stop-color="oklch(1 0 36 / 0.18)"/><stop offset="40%" stop-color="oklch(1 0 36 / 0)"/><stop offset="100%" stop-color="oklch(0.08 0.008 36 / 0.5)"/></linearGradient><linearGradient id="g-rim" x1="0%" y1="0%" x2="100%" y2="100%"><stop offset="0%" stop-color="oklch(0.98 0.006 36 / 0.95)"/><stop offset="50%" stop-color="oklch(0.79 0.024 36 / 0.5)"/><stop offset="100%" stop-color="oklch(0.37 0.024 36 / 0.55)"/></linearGradient><radialGradient id="g-spc" cx="50%" cy="50%" r="50%"><stop offset="0%" stop-color="oklch(1 0 36 / 0.81)"/><stop offset="55%" stop-color="oklch(1 0 36 / 0.225)"/><stop offset="100%" stop-color="oklch(1 0 36 / 0)"/></radialGradient></defs><circle cx="32" cy="32" r="30" fill="url(#bl)"/><g><polygon points="32,7 53.65,19.5 42.83,25.75 32,19.5" fill="oklch(0.633 0.034 36)"/><polygon points="53.65,19.5 53.65,44.5 42.83,38.25 42.83,25.75" fill="oklch(0.484 0.042 36)"/><polygon points="53.65,44.5 32,57 32,44.5 42.83,38.25" fill="oklch(0.421 0.045 36)"/><polygon points="32,57 10.35,44.5 21.17,38.25 32,44.5" fill="oklch(0.507 0.04 36)"/><polygon points="10.35,44.5 10.35,19.5 21.17,25.75 21.17,38.25" fill="oklch(0.656 0.033 36)"/><polygon points="10.35,19.5 32,7 32,19.5 21.17,25.75" fill="oklch(0.719 0.03 36)"/><polygon points="32,19.5 42.83,25.75 42.83,38.25 32,44.5 21.17,38.25 21.17,25.75" fill="url(#g-tab)"/><circle cx="32" cy="32" r="12.25" fill="url(#g-core)"/><polygon points="32,7 53.65,19.5 53.65,44.5 32,57 10.35,44.5 10.35,19.5" fill="url(#g-shd)"/><line x1="32" y1="7" x2="32" y2="19.5" stroke="oklch(0.87 0.016 36 / 0.38)" stroke-width="0.35"/><line x1="53.65" y1="19.5" x2="42.83" y2="25.75" stroke="oklch(0.87 0.016 36 / 0.38)" stroke-width="0.35"/><line x1="53.65" y1="44.5" x2="42.83" y2="38.25" stroke="oklch(0.87 0.016 36 / 0.38)" stroke-width="0.35"/><line x1="32" y1="57" x2="32" y2="44.5" stroke="oklch(0.87 0.016 36 / 0.38)" stroke-width="0.35"/><line x1="10.35" y1="44.5" x2="21.17" y2="38.25" stroke="oklch(0.87 0.016 36 / 0.38)" stroke-width="0.35"/><line x1="10.35" y1="19.5" x2="21.17" y2="25.75" stroke="oklch(0.87 0.016 36 / 0.38)" stroke-width="0.35"/><polygon points="32,19.5 42.83,25.75 42.83,38.25 32,44.5 21.17,38.25 21.17,25.75" fill="none" stroke="oklch(0.85 0.02 36 / 0.5)" stroke-width="0.4"/><ellipse cx="27.31" cy="23.17" rx="7.5" ry="2.75" transform="rotate(-38 27.30528437214109 23.170524071410732)" fill="url(#g-spc)"/><polygon points="32,7 53.65,19.5 53.65,44.5 32,57 10.35,44.5 10.35,19.5" fill="none" stroke="url(#g-rim)" stroke-width="1.1" stroke-linejoin="round"/></g></svg>