<svg xmlns="http://www.w3.org/2000/svg" width="64" height="64" viewBox="0 0 64 64"><defs><radialGradient id="bl"><stop offset="0%" stop-color="oklch(0.78 0.1 154 / 0.22)"/><stop offset="55%" stop-color="oklch(0.78 0.1 154 / 0.077)"/><stop offset="100%" stop-color="oklch(0.78 0.1 154 / 0)"/></radialGradient><linearGradient id="g-tab" x1="0%" y1="0%" x2="100%" y2="100%"><stop offset="0%" stop-color="oklch(0.733 0.116 154)"/><stop offset="55%" stop-color="oklch(0.573 0.153 154)"/><stop offset="100%" stop-color="oklch(0.463 0.16 154)"/></linearGradient><radialGradient id="g-core" cx="44%" cy="42%" r="62%"><stop offset="0%" stop-color="oklch(0.933 0.044 154 / 0.76)"/><stop offset="42%" stop-color="oklch(0.733 0.124 154 / 0.32)"/><stop offset="100%" stop-color="oklch(0.693 0.146 154 / 0)"/></radialGradient><linearGradient id="g-shd" x1="0%" y1="0%" x2="100%" y2="100%"><stop offset="0%" stop-color="oklch(1 0 154 / 0.18)"/><stop offset="40%" stop-color="oklch(1 0 154 / 0)"/><stop offset="100%" stop-color="oklch(0.08 0.029 154 / 0.5)"/></linearGradient><linearGradient id="g-rim" x1="0%" y1="0%" x2="100%" y2="100%"><stop offset="0%" stop-color="oklch(0.98 0.022 154 / 0.95)"/><stop offset="50%" stop-color="oklch(0.813 0.087 154 / 0.5)"/><stop offset="100%" stop-color="oklch(0.393 0.087 154 / 0.55)"/></linearGradient><radialGradient id="g-spc" cx="50%" cy="50%" r="50%"><stop offset="0%" stop-color="oklch(1 0 154 / 0.9)"/><stop offset="55%" stop-color="oklch(1 0 154 / 0.25)"/><stop offset="100%" stop-color="oklch(1 0 154 / 0)"/></radialGradient></defs><circle cx="32" cy="32" r="30" fill="url(#bl)"/><g><polygon points="32,7 53.65,19.5 43.26,25.5 32,19" fill="oklch(0.659 0.124 154)"/><polygon points="53.65,19.5 53.65,44.5 43.26,38.5 43.26,25.5" fill="oklch(0.504 0.151 154)"/><polygon points="53.65,44.5 32,57 32,45 43.26,38.5" fill="oklch(0.439 0.163 154)"/><polygon points="32,57 10.35,44.5 20.74,38.5 32,45" fill="oklch(0.528 0.147 154)"/><polygon points="10.35,44.5 10.35,19.5 20.74,25.5 20.74,38.5" fill="oklch(0.682 0.12 154)"/><polygon points="10.35,19.5 32,7 32,19 20.74,25.5" fill="oklch(0.748 0.108 154)"/><polygon points="32,19 43.26,25.5 43.26,38.5 32,45 20.74,38.5 20.74,25.5" fill="url(#g-tab)"/><circle cx="32" cy="32" r="12.74" fill="url(#g-core)"/><polygon points="32,7 53.65,19.5 53.65,44.5 32,57 10.35,44.5 10.35,19.5" fill="url(#g-shd)"/><line x1="32" y1="7" x2="32" y2="19" stroke="oklch(0.893 0.058 154 / 0.38)" stroke-width="0.35"/><line x1="53.65" y1="19.5" x2="43.26" y2="25.5" stroke="oklch(0.893 0.058 154 / 0.38)" stroke-width="0.35"/><line x1="53.65" y1="44.5" x2="43.26" y2="38.5" stroke="oklch(0.893 0.058 154 / 0.38)" stroke-width="0.35"/><line x1="32" y1="57" x2="32" y2="45" stroke="oklch(0.893 0.058 154 / 0.38)" stroke-width="0.35"/><line x1="10.35" y1="44.5" x2="20.74" y2="38.5" stroke="oklch(0.893 0.058 154 / 0.38)" stroke-width="0.35"/><line x1="10.35" y1="19.5" x2="20.74" y2="25.5" stroke="oklch(0.893 0.058 154 / 0.38)" stroke-width="0.35"/><polygon points="32,19 43.26,25.5 43.26,38.5 32,45 20.74,38.5 20.74,25.5" fill="none" stroke="oklch(0.873 0.073 154 / 0.5)" stroke-width="0.4"/><ellipse cx="27.31" cy="23.17" rx="7.5" ry="2.75" transform="rotate(-38 27.30528437214109 23.170524071410732)" fill="url(#g-spc)"/><polygon points="32,7 53.65,19.5 53.65,44.5 32,57 10.35,44.5 10.35,19.5" fill="none" stroke="url(#g-rim)" stroke-width="1.1" stroke-linejoin="round"/></g><line x1="21.31" y1="35.65" x2="39.49" y2="25.15" stroke="oklch(0.97 0.029 154 / 0.32)" stroke-width="0.55" stroke-linecap="round"/><line x1="24.51" y1="38.85" x2="42.69" y2="28.35" stroke="oklch(0.97 0.029 154 / 0.32)" stroke-width="0.55" stroke-linecap="round"/></svg>