<svg xmlns="http://www.w3.org/2000/svg" width="64" height="64" viewBox="0 0 64 64">
  <defs>
    <linearGradient id="g9" x1="0%" y1="100%" x2="100%" y2="0%">
      <stop offset="0%" stop-color="oklch(0.55 0.30 19.5)"/><stop offset="50%" stop-color="oklch(0.65 0.28 34.5)"/><stop offset="100%" stop-color="oklch(0.72 0.25 49.5)"/>
    </linearGradient>
    <radialGradient id="fl"><stop offset="0%" stop-color="oklch(0.80 0.25 49.5)" stop-opacity="0.5"/><stop offset="60%" stop-color="oklch(0.65 0.28 19.5)" stop-opacity="0.2"/><stop offset="100%" stop-color="oklch(0.65 0.28 19.5)" stop-opacity="0"/></radialGradient>
  </defs>
  <ellipse cx="32" cy="28.16" rx="26.88" ry="32.64" fill="url(#fl)"/>
  <circle cx="19.15" cy="17.73" r="0.6" fill="oklch(0.85 0.22 19.5)" opacity="0.50"/>
  <circle cx="27.01" cy="8.52" r="1" fill="oklch(0.85 0.22 39.5)" opacity="0.65"/>
  <circle cx="40.90" cy="4.61" r="0.6" fill="oklch(0.85 0.22 59.5)" opacity="0.80"/>
  <circle cx="46.27" cy="19.15" r="1" fill="oklch(0.85 0.22 79.5)" opacity="0.50"/>
  <circle cx="55.48" cy="27.01" r="0.6" fill="oklch(0.85 0.22 99.5)" opacity="0.65"/>
  <circle cx="59.39" cy="40.90" r="1" fill="oklch(0.85 0.22 119.5)" opacity="0.80"/>
  <circle cx="44.85" cy="46.27" r="0.6" fill="oklch(0.85 0.22 139.5)" opacity="0.50"/>
  <circle cx="36.99" cy="55.48" r="1" fill="oklch(0.85 0.22 159.5)" opacity="0.65"/>
  <circle cx="23.10" cy="59.39" r="0.6" fill="oklch(0.85 0.22 179.5)" opacity="0.80"/>
  <circle cx="17.73" cy="44.85" r="1" fill="oklch(0.85 0.22 199.5)" opacity="0.50"/>
  <circle cx="8.52" cy="36.99" r="0.6" fill="oklch(0.85 0.22 219.5)" opacity="0.65"/>
  <circle cx="4.61" cy="23.10" r="1" fill="oklch(0.85 0.22 239.5)" opacity="0.80"/>
  <polygon points="32.00,12.80 48.63,22.40 48.63,41.60 32.00,51.20 15.37,41.60 15.37,22.40" fill="url(#g9)" stroke="oklch(0.72 0.28 19.5)" stroke-width="1.5"/>
  <polygon points="32.00,23.36 33.47,28.45 38.11,25.89 35.55,30.53 40.64,32.00 35.55,33.47 38.11,38.11 33.47,35.55 32.00,40.64 30.53,35.55 25.89,38.11 28.45,33.47 23.36,32.00 28.45,30.53 25.89,25.89 30.53,28.45" fill="oklch(0.80 0.24 34.5)" opacity="0.4"/>
</svg>