<svg xmlns="http://www.w3.org/2000/svg" width="64" height="64" viewBox="0 0 64 64">
  <defs>
    <linearGradient id="g9" x1="0%" y1="100%" x2="100%" y2="0%">
      <stop offset="0%" stop-color="oklch(0.55 0.30 15.0)"/><stop offset="50%" stop-color="oklch(0.65 0.28 30.0)"/><stop offset="100%" stop-color="oklch(0.72 0.25 45.0)"/>
    </linearGradient>
    <radialGradient id="fl"><stop offset="0%" stop-color="oklch(0.80 0.25 45.0)" stop-opacity="0.5"/><stop offset="60%" stop-color="oklch(0.65 0.28 15.0)" stop-opacity="0.2"/><stop offset="100%" stop-color="oklch(0.65 0.28 15.0)" stop-opacity="0"/></radialGradient>
  </defs>
  <ellipse cx="32" cy="28.16" rx="26.88" ry="32.64" fill="url(#fl)"/>
  <circle cx="14.89" cy="23.28" r="0.6" fill="oklch(0.85 0.22 15.0)" opacity="0.50"/>
  <circle cx="18.93" cy="11.87" r="1" fill="oklch(0.85 0.22 35.0)" opacity="0.65"/>
  <circle cx="30.49" cy="3.24" r="0.6" fill="oklch(0.85 0.22 55.0)" opacity="0.80"/>
  <circle cx="40.72" cy="14.89" r="1" fill="oklch(0.85 0.22 75.0)" opacity="0.50"/>
  <circle cx="52.13" cy="18.93" r="0.6" fill="oklch(0.85 0.22 95.0)" opacity="0.65"/>
  <circle cx="60.76" cy="30.49" r="1" fill="oklch(0.85 0.22 115.0)" opacity="0.80"/>
  <circle cx="49.11" cy="40.72" r="0.6" fill="oklch(0.85 0.22 135.0)" opacity="0.50"/>
  <circle cx="45.07" cy="52.13" r="1" fill="oklch(0.85 0.22 155.0)" opacity="0.65"/>
  <circle cx="33.51" cy="60.76" r="0.6" fill="oklch(0.85 0.22 175.0)" opacity="0.80"/>
  <circle cx="23.28" cy="49.11" r="1" fill="oklch(0.85 0.22 195.0)" opacity="0.50"/>
  <circle cx="11.87" cy="45.07" r="0.6" fill="oklch(0.85 0.22 215.0)" opacity="0.65"/>
  <circle cx="3.24" cy="33.51" r="1" fill="oklch(0.85 0.22 235.0)" opacity="0.80"/>
  <polygon points="32.00,12.80 48.63,22.40 48.63,41.60 32.00,51.20 15.37,41.60 15.37,22.40" fill="url(#g9)" stroke="oklch(0.72 0.28 15.0)" stroke-width="1.5"/>
  <polygon points="32.00,23.36 33.47,28.45 38.11,25.89 35.55,30.53 40.64,32.00 35.55,33.47 38.11,38.11 33.47,35.55 32.00,40.64 30.53,35.55 25.89,38.11 28.45,33.47 23.36,32.00 28.45,30.53 25.89,25.89 30.53,28.45" fill="oklch(0.80 0.24 30.0)" opacity="0.4"/>
</svg>