<svg xmlns="http://www.w3.org/2000/svg" width="64" height="64" viewBox="0 0 64 64">
  <defs>
    <linearGradient id="cg" x1="0%" y1="0%" x2="100%" y2="100%">
      <stop offset="0%" stop-color="oklch(0.78 0.30 45)"/><stop offset="100%" stop-color="oklch(0.55 0.28 200)"/>
    </linearGradient>
    <radialGradient id="ca"><stop offset="0%" stop-color="oklch(0.85 0.25 45)" stop-opacity="0.6"/><stop offset="100%" stop-color="oklch(0.85 0.25 45)" stop-opacity="0"/></radialGradient>
  </defs>
  <circle cx="32" cy="32" r="35.84" fill="url(#ca)"/>
  <polygon points="32.00,6.91 36.17,16.42 44.54,10.27 43.40,20.60 53.73,19.46 47.58,27.83 57.09,32.00 47.58,36.17 53.73,44.54 43.40,43.40 44.54,53.73 36.17,47.58 32.00,57.09 27.83,47.58 19.46,53.73 20.60,43.40 10.27,44.54 16.42,36.17 6.91,32.00 16.42,27.83 10.27,19.46 20.60,20.60 19.46,10.27 27.83,16.42" fill="url(#cg)" stroke="oklch(0.80 0.25 45)" stroke-width="1"/>
  <polygon points="32.00,19.46 42.86,25.73 42.86,38.27 32.00,44.54 21.14,38.27 21.14,25.73" fill="oklch(0.88 0.18 45 / 0.6)"/>
  <polygon points="32.00,24.83 33.79,28.90 38.21,28.42 35.58,32.00 38.21,35.58 33.79,35.10 32.00,39.17 30.21,35.10 25.79,35.58 28.42,32.00 25.79,28.42 30.21,28.90" fill="oklch(0.92 0.12 45 / 0.5)"/>
  <circle cx="60.67" cy="32.00" r="0.7" fill="oklch(0.92 0.22 0.0)" opacity="0.7"/>
  <circle cx="56.83" cy="46.34" r="0.7" fill="oklch(0.92 0.22 30.0)" opacity="0.7"/>
  <circle cx="46.34" cy="56.83" r="0.7" fill="oklch(0.92 0.22 60.0)" opacity="0.7"/>
  <circle cx="32.00" cy="60.67" r="0.7" fill="oklch(0.92 0.22 90.0)" opacity="0.7"/>
  <circle cx="17.66" cy="56.83" r="0.7" fill="oklch(0.92 0.22 120.0)" opacity="0.7"/>
  <circle cx="7.17" cy="46.34" r="0.7" fill="oklch(0.92 0.22 150.0)" opacity="0.7"/>
  <circle cx="3.33" cy="32.00" r="0.7" fill="oklch(0.92 0.22 180.0)" opacity="0.7"/>
  <circle cx="7.17" cy="17.66" r="0.7" fill="oklch(0.92 0.22 210.0)" opacity="0.7"/>
  <circle cx="17.66" cy="7.17" r="0.7" fill="oklch(0.92 0.22 240.0)" opacity="0.7"/>
  <circle cx="32.00" cy="3.33" r="0.7" fill="oklch(0.92 0.22 270.0)" opacity="0.7"/>
  <circle cx="46.34" cy="7.17" r="0.7" fill="oklch(0.92 0.22 300.0)" opacity="0.7"/>
  <circle cx="56.83" cy="17.66" r="0.7" fill="oklch(0.92 0.22 330.0)" opacity="0.7"/>
</svg>